<svg width="500" height="500" viewBox="0 0 500 500" fill="none" xmlns="http://www.w3.org/2000/svg">
<rect width="500" height="500" fill="#0A0A0A"/>
<path d="M320.776 280.303C320.182 279.344 319.464 278.454 318.776 277.563C306.021 260.881 293.266 244.214 280.51 227.542C270.359 214.272 260.229 200.985 250.052 187.73C248.203 185.334 247.151 185.209 244.693 186.818C231.276 195.579 217.88 204.36 204.474 213.115C193.141 220.527 181.823 227.933 170.469 235.298C169.932 235.647 169.448 235.886 169 236.037V266.219L195.536 249.688C197.375 248.49 199.203 247.292 201.042 246.084C212.552 238.548 224.068 231.011 235.583 223.48C238.599 221.511 239.62 221.584 241.339 223.855C250.974 236.563 260.599 249.287 270.224 262.006C274.974 268.277 279.656 274.594 284.469 280.813H321.026C320.958 280.652 320.88 280.475 320.776 280.303Z" fill="#D4D4D4"/>
<path d="M170.276 223.719C171.615 224.042 173.453 223.329 174.75 222.558C178.49 220.324 182.068 217.824 185.714 215.438C190.198 212.516 194.682 209.594 199.167 206.673V206.621C232.531 184.928 250.229 173.397 267.917 161.865C270.094 160.449 271.438 160.652 272.833 162.803C274.641 165.574 276.286 168.459 278.109 171.219C279.812 173.787 281.979 173.683 283.536 171.048C285.062 168.454 286.557 165.839 288.062 163.24C295.172 151.001 302.292 138.766 309.37 126.516C311.12 123.48 310.146 121.459 306.896 121.438C289.141 121.287 271.385 121.277 253.635 121.001C250.182 120.949 249.099 123.719 250.802 126.282C252.599 128.975 254.203 131.782 255.87 134.558C257.375 137.058 257.125 138.199 254.682 139.792C244.87 146.214 235.057 152.636 225.234 159.042C220.193 162.324 215.156 165.615 199.151 175.985V170.214C199.078 169.256 199.083 168.287 199.083 167.329C199.083 153.522 199.099 139.719 199.104 125.912C199.104 125.371 199.094 124.907 199.052 124.496H169V222.725C169.229 223.193 169.62 223.563 170.276 223.719Z" fill="url(#paint0_linear_6_148)"/>
<path d="M71.7368 307.058C71.7368 305.588 72.254 304.336 73.2885 303.302C74.3774 302.267 75.6569 301.75 77.127 301.75C78.597 301.75 79.8221 302.267 80.8021 303.302C81.8366 304.282 82.3538 305.534 82.3538 307.058V328.537L104.649 303.465C105.63 302.322 106.963 301.75 108.651 301.75C109.958 301.75 111.101 302.158 112.081 302.975C113.17 303.955 113.769 305.18 113.878 306.65C113.987 308.12 113.579 309.4 112.653 310.489L98.606 326.169L113.225 350.996C113.878 352.249 114.014 353.583 113.633 354.998C113.306 356.414 112.544 357.53 111.346 358.347C110.366 358.782 109.495 359 108.733 359C106.664 359 105.085 358.102 103.996 356.305L91.1741 334.663L82.3538 344.626V353.61C82.3538 355.08 81.8366 356.359 80.8021 357.448C79.7676 358.483 78.5426 359 77.127 359C75.6569 359 74.3774 358.483 73.2885 357.448C72.254 356.359 71.7368 355.08 71.7368 353.61V307.058ZM125.855 301.75H156.726C158.142 301.75 159.367 302.267 160.401 303.302C161.49 304.282 162.035 305.507 162.035 306.977C162.035 308.392 161.49 309.645 160.401 310.734C159.367 311.822 158.142 312.367 156.726 312.367H131.246V325.189H152.97C154.44 325.189 155.692 325.706 156.726 326.741C157.815 327.721 158.36 328.973 158.36 330.497C158.36 331.859 157.815 333.056 156.726 334.091C155.692 335.125 154.44 335.643 152.97 335.643H131.246V348.301H156.726C158.142 348.301 159.367 348.846 160.401 349.935C161.49 350.969 162.035 352.221 162.035 353.692C162.035 355.162 161.49 356.414 160.401 357.448C159.367 358.483 158.142 359 156.726 359H125.855C124.385 359 123.133 358.483 122.099 357.448C121.064 356.359 120.547 355.08 120.547 353.61V306.977C120.547 305.507 121.064 304.282 122.099 303.302C123.133 302.267 124.385 301.75 125.855 301.75ZM204.234 312.367H192.392V353.692C192.392 355.162 191.874 356.414 190.84 357.448C189.805 358.483 188.553 359 187.083 359C185.667 359 184.442 358.483 183.408 357.448C182.373 356.414 181.856 355.162 181.856 353.692V312.367H170.014C168.544 312.367 167.292 311.822 166.257 310.734C165.277 309.645 164.787 308.392 164.787 306.977C164.787 305.507 165.277 304.282 166.257 303.302C167.292 302.267 168.544 301.75 170.014 301.75H204.234C205.704 301.75 206.929 302.267 207.909 303.302C208.889 304.282 209.379 305.507 209.379 306.977C209.379 308.392 208.861 309.645 207.827 310.734C206.847 311.822 205.649 312.367 204.234 312.367ZM209.097 330.334C209.097 325.162 210.35 320.37 212.854 315.96C215.413 311.55 218.87 308.093 223.226 305.588C227.636 303.029 232.427 301.75 237.6 301.75C241.52 301.75 245.25 302.485 248.789 303.955C252.328 305.425 255.377 307.467 257.935 310.08C258.97 311.115 259.487 312.367 259.487 313.837C259.487 315.307 258.97 316.532 257.935 317.512C256.847 318.601 255.594 319.145 254.179 319.145C252.763 319.145 251.538 318.601 250.504 317.512C247.019 314.082 242.718 312.367 237.6 312.367C232.7 312.367 228.48 314.136 224.941 317.675C221.457 321.16 219.714 325.38 219.714 330.334C219.714 335.289 221.457 339.536 224.941 343.075C228.48 346.559 232.7 348.301 237.6 348.301C242.718 348.301 247.019 346.532 250.504 342.993C251.538 341.958 252.763 341.441 254.179 341.441C255.594 341.441 256.847 341.958 257.935 342.993C258.97 344.082 259.487 345.361 259.487 346.831C259.487 348.301 258.97 349.526 257.935 350.506C255.377 353.174 252.328 355.27 248.789 356.795C245.25 358.265 241.52 359 237.6 359C232.427 359 227.636 357.721 223.226 355.162C218.87 352.603 215.413 349.145 212.854 344.79C210.35 340.379 209.097 335.561 209.097 330.334ZM277.195 307.058V325.189H300.471V307.058C300.471 305.588 300.988 304.336 302.023 303.302C303.112 302.267 304.364 301.75 305.78 301.75C307.25 301.75 308.475 302.267 309.455 303.302C310.489 304.282 311.006 305.534 311.006 307.058V353.692C311.006 355.162 310.489 356.414 309.455 357.448C308.475 358.483 307.25 359 305.78 359C304.364 359 303.112 358.483 302.023 357.448C300.988 356.414 300.471 355.162 300.471 353.692V335.643H277.195V353.692C277.195 355.162 276.651 356.414 275.562 357.448C274.527 358.483 273.275 359 271.805 359C270.335 359 269.083 358.483 268.048 357.448C267.068 356.414 266.578 355.162 266.578 353.692V307.058C266.578 305.534 267.068 304.282 268.048 303.302C269.083 302.267 270.335 301.75 271.805 301.75C273.275 301.75 274.527 302.267 275.562 303.302C276.651 304.336 277.195 305.588 277.195 307.058ZM323.104 326.169H351.933C353.186 326.169 354.22 326.577 355.037 327.394C355.854 328.156 356.262 329.109 356.262 330.252C356.262 331.559 355.854 332.621 355.037 333.438C354.22 334.254 353.186 334.663 351.933 334.663H323.104C321.906 334.663 320.872 334.254 320.001 333.438C319.184 332.621 318.776 331.559 318.776 330.252C318.776 329.164 319.184 328.211 320.001 327.394C320.872 326.577 321.906 326.169 323.104 326.169ZM393.197 337.358L385.683 319.472L378.088 337.358H393.197ZM360.529 351.568L380.375 305.017C380.81 303.928 381.491 303.111 382.417 302.567C383.397 302.022 384.485 301.75 385.683 301.75C386.827 301.75 387.888 302.022 388.868 302.567C389.848 303.111 390.529 303.928 390.91 305.017L410.674 351.568C411.327 352.929 411.382 354.29 410.837 355.652C410.293 357.013 409.34 357.938 407.979 358.428C407.326 358.809 406.618 359 405.856 359C404.876 359 403.95 358.701 403.079 358.102C402.208 357.503 401.554 356.713 401.119 355.733L397.77 348.056H373.515L370.166 355.733C369.731 356.713 369.077 357.503 368.206 358.102C367.335 358.701 366.382 359 365.348 359C364.64 359 363.932 358.809 363.224 358.428C361.863 357.938 360.91 357.013 360.366 355.652C359.876 354.29 359.93 352.929 360.529 351.568ZM416.837 307.058C416.837 305.534 417.354 304.282 418.389 303.302C419.423 302.267 420.675 301.75 422.145 301.75C423.561 301.75 424.786 302.267 425.82 303.302C426.909 304.336 427.454 305.588 427.454 307.058V353.692C427.454 355.107 426.909 356.359 425.82 357.448C424.786 358.483 423.561 359 422.145 359C420.675 359 419.423 358.483 418.389 357.448C417.354 356.414 416.837 355.162 416.837 353.692V307.058Z" fill="#D4D4D4"/>
<defs>
<linearGradient id="paint0_linear_6_148" x1="247" y1="138" x2="215" y2="219" gradientUnits="userSpaceOnUse">
<stop stop-color="#3B82F6"/>
<stop offset="1" stop-color="#F97316"/>
</linearGradient>
</defs>
</svg>
